<svg width="512" height="358" viewBox="0 0 512 358" fill="none" xmlns="http://www.w3.org/2000/svg">
<g clip-path="url(#clip0_78_2335)">
<path d="M512 339H0V340.561H512V339Z" fill="#CCCCCC"/>
<path d="M368.368 164.538C363.627 136.114 338.921 114.454 309.156 114.454H187.434C157.681 114.454 132.98 136.097 128.223 164.503C127.673 167.752 127.39 171.093 127.39 174.498V280.555C127.39 283.96 127.673 287.295 128.223 290.544C132.009 313.175 148.461 331.517 170.045 338.032C175.549 339.697 181.387 340.593 187.434 340.593H309.157C315.203 340.593 321.041 339.697 326.545 338.032C348.135 331.511 364.593 313.158 368.368 290.509C368.911 287.272 369.194 283.948 369.194 280.555V174.498C369.194 171.105 368.911 167.775 368.368 164.538ZM319.458 338.032C316.111 338.627 312.671 338.94 309.157 338.94H187.434C183.919 338.94 180.48 338.627 177.133 338.032C149.802 333.17 129.049 309.285 129.049 280.555V245.351C129.049 145.878 209.683 116.113 309.156 116.113C341.401 116.113 367.541 142.253 367.541 174.498V280.555C289.265 291.03 346.788 333.17 319.458 338.032Z" fill="#3F3D56"/>
<path d="M272.517 194.487L277.2 224.926L345.883 215.56L339.248 179.996L272.517 194.487Z" fill="#338051"/>
<path d="M326.421 23.6817H298.023V53.0758H326.421V23.6817Z" fill="#2F2E41"/>
<path d="M300.614 54.7797L307.639 33.7065H321.33L322.05 54.7797H300.614Z" fill="#FFB6B6"/>
<path opacity="0.1" d="M300.614 54.7797L307.639 33.7065H321.33L322.05 54.7797H300.614Z" fill="black"/>
<path d="M308.029 242.487L307.248 323.658L306.468 329.902V338.865L318.175 340.048L318.956 322.097C318.956 322.097 331.444 286.975 328.322 259.658C325.2 232.341 326.761 240.145 326.761 240.145L308.029 242.487Z" fill="#FFB6B6"/>
<path d="M315.461 248.861L286.66 324.755L285.115 330.855L281.855 339.204L270.519 336.047L276.322 319.042C276.322 319.042 277.467 281.783 290.312 257.474C303.157 233.164 298.864 239.866 298.864 239.866L315.461 248.861Z" fill="#FFB6B6"/>
<path d="M300.614 52.4382L279.541 61.804L292.996 131.277L290.87 230.989L276.822 260.647C276.822 260.647 274.468 277.609 298.663 266.682C322.858 255.755 350.175 252.633 350.175 252.633L343.541 206.975L337.687 87.1699L338.468 60.6333L321.297 49.7065C321.297 49.7065 300.614 52.4382 300.614 52.4382Z" fill="#2F2E41"/>
<path d="M288.878 261.731L265.492 222.585L292.216 131.277L279.541 61.8041L301.778 52.2846C301.778 52.2846 313.289 63.4943 313.289 72.7403C313.289 81.9863 288.878 261.731 288.878 261.731Z" fill="#E6E6E6"/>
<path d="M339.609 253.926L318.382 71.5825C318.114 69.2801 318.507 66.9489 319.516 64.8617L325.59 52.2846L349.395 59.0723L339.826 133.618L365.395 206.975L339.609 253.926Z" fill="#E6E6E6"/>
<path d="M320.517 338.487C320.517 338.487 305.687 329.902 304.126 334.585C302.566 339.267 301.785 343.17 301.785 343.17C301.785 343.17 297.883 357.999 309.59 357.999C321.297 357.999 320.517 351.254 320.517 351.254V338.487Z" fill="#2F2E41"/>
<path d="M268.906 333.741C268.906 333.741 285.842 331.139 285.593 336.069C285.343 340.999 284.651 344.918 284.651 344.918C284.651 344.918 282.891 360.15 271.986 355.892C261.081 351.633 264.262 345.634 264.262 345.634L268.906 333.741Z" fill="#2F2E41"/>
<path d="M315.397 45.1757C326.113 45.1757 334.8 36.4888 334.8 25.7728C334.8 15.0569 326.113 6.36997 315.397 6.36997C304.682 6.36997 295.995 15.0569 295.995 25.7728C295.995 36.4888 304.682 45.1757 315.397 45.1757Z" fill="#FFB6B6"/>
<path d="M330.899 8.48208C329.996 3.69819 325.085 0.462456 320.234 0.0567039C315.383 -0.349048 310.63 1.48286 306.261 3.63072C303.3 5.08671 300.384 6.72778 297.985 8.99409C295.586 11.2604 293.723 14.221 293.293 17.4929C293.14 18.6506 293.16 19.8601 292.686 20.9272C292.094 22.2603 290.824 23.1656 290.057 24.4063C288.681 26.6314 289.313 29.8686 291.424 31.4132C288.771 32.5442 286.044 33.7239 284.021 35.7805C281.998 37.837 280.829 41.0121 281.94 43.6748C282.332 44.6169 282.981 45.4414 283.317 46.4053C283.954 48.2355 283.348 50.3148 282.217 51.8889C281.086 53.4629 279.491 54.6302 277.923 55.7697C281.952 56.5593 286.064 57.1747 290.153 56.8062C294.242 56.4378 298.346 55.0048 301.307 52.161C304.268 49.3171 305.897 44.9302 304.835 40.9646C304.021 37.9267 301.745 35.2647 301.746 32.1196C301.747 29.7021 303.107 27.5213 304.419 25.4912C307.286 21.0575 310.153 16.6238 313.019 12.1901C313.535 11.3926 314.079 10.5673 314.894 10.0795C316.28 9.24964 318.078 9.61458 319.539 10.3034C321.001 10.9922 322.336 11.9804 323.894 12.4074C327.074 13.2791 330.763 11.2774 331.766 8.13614" fill="#2F2E41"/>
<path d="M319.438 47.9416C317.821 49.5074 315.491 50.0117 313.331 50.6462C311.172 51.2806 308.875 52.2785 307.903 54.3085C306.95 56.2991 307.642 58.8259 309.22 60.3691C310.797 61.9122 313.089 62.5622 315.296 62.5316C317.503 62.501 319.654 61.8542 321.729 61.1033C327.403 59.0499 332.778 56.1694 337.63 52.5811C334.487 51.7116 332.431 48.0417 333.331 44.9073C334.062 42.3576 336.3 40.5793 337.823 38.4073C340.445 34.6676 340.882 29.738 340.014 25.254C339.146 20.7699 337.101 16.6132 335.078 12.5183C334.439 11.2238 333.784 9.90744 332.787 8.86367C331.789 7.81992 330.377 7.07215 328.941 7.22169C326.558 7.46985 325.036 10.086 325.02 12.4819C325.003 14.8779 326.055 17.1297 326.852 19.3892C327.673 21.717 328.244 24.1846 328.024 26.6432C327.839 28.7036 327.09 30.7106 325.879 32.3878C324.944 33.6831 323.752 34.7701 322.735 36.0022C321.949 36.9549 321.252 38.0339 321.046 39.2516C320.67 41.4675 321.969 43.7096 321.613 45.9288C321.237 48.2746 318.768 50.0706 316.42 49.707" fill="#2F2E41"/>
<path d="M260.096 318.942C296.736 318.942 326.438 289.24 326.438 252.601C326.438 215.961 296.736 186.259 260.096 186.259C223.457 186.259 193.755 215.961 193.755 252.601C193.755 289.24 223.457 318.942 260.096 318.942Z" fill="#338051"/>
<path d="M299.847 247.276H291.599C290.316 239.716 286.357 232.869 280.444 227.985C266.837 216.746 246.695 218.666 235.456 232.273C235.418 232.316 235.381 232.361 235.346 232.407C234.448 233.571 234.663 235.243 235.827 236.141C236.991 237.039 238.663 236.823 239.561 235.659C244.443 229.744 251.833 225.98 260.096 225.98C272.747 225.981 283.651 234.882 286.185 247.276H278.912C278.601 247.277 278.3 247.386 278.061 247.585C277.496 248.055 277.419 248.894 277.89 249.459L288.357 262.024C288.408 262.086 288.465 262.143 288.527 262.194C289.091 262.665 289.931 262.589 290.401 262.024L300.869 249.459C301.068 249.22 301.177 248.919 301.177 248.608C301.177 247.873 300.582 247.277 299.847 247.276Z" fill="white"/>
<path d="M284.366 269.06C283.201 268.162 281.53 268.378 280.632 269.542C276.759 274.231 271.398 277.453 265.44 278.673C251.031 281.623 236.958 272.334 234.008 257.925H241.281C242.016 257.924 242.612 257.328 242.611 256.593C242.611 256.282 242.502 255.981 242.303 255.742L231.836 243.177C231.365 242.612 230.526 242.536 229.961 243.007C229.899 243.058 229.843 243.115 229.791 243.177L219.324 255.742C218.854 256.307 218.93 257.146 219.495 257.616C219.734 257.816 220.035 257.925 220.346 257.925H228.593C229.876 265.486 233.836 272.333 239.748 277.216C253.356 288.455 273.498 286.536 284.737 272.928C284.775 272.885 284.812 272.84 284.847 272.794C285.745 271.63 285.53 269.959 284.366 269.06Z" fill="white"/>
<path d="M278.62 185.127C277.816 190.876 274.199 195.122 270.54 194.61C266.881 194.098 264.567 189.023 265.372 183.272C265.662 180.97 266.499 178.771 267.812 176.859L271.524 152.542L282.898 154.527L278.032 178.288C278.771 180.488 278.973 182.833 278.62 185.127Z" fill="#FFB6B6"/>
<path d="M288.517 60.6333C288.517 60.6333 276.809 56.7309 275.248 70.7796C273.687 84.8284 272.126 101.999 272.126 101.999C272.126 101.999 265.102 118.389 268.224 126.975C271.346 135.56 276.809 129.574 271.346 136.86C265.883 144.145 266.644 168.116 266.644 168.116L284.224 167.231C284.224 167.231 293.98 102.78 293.98 101.219C293.98 99.6577 288.517 60.6333 288.517 60.6333Z" fill="#E6E6E6"/>
<path d="M364.614 182.517C364.831 188.318 362.015 193.133 358.323 193.27C354.631 193.408 351.463 188.818 351.246 183.015C351.127 180.698 351.566 178.386 352.524 176.273L351.912 151.682L363.458 151.641L362.835 175.888C363.949 177.924 364.559 180.197 364.614 182.517Z" fill="#FFB6B6"/>
<path d="M346.591 60.3698C346.591 60.3698 358.366 56.6771 359.676 70.7515C360.986 84.826 362.24 110.607 362.24 110.607C362.24 110.607 368.97 127.12 365.695 135.649C362.42 144.177 357.065 138.094 362.397 145.476C367.73 152.858 365.816 173.676 365.816 173.676L348.254 172.477C348.254 172.477 340.375 110.997 340.403 109.436C340.431 107.876 346.591 60.3698 346.591 60.3698Z" fill="#E6E6E6"/>
</g>
<defs>
<clipPath id="clip0_78_2335">
<rect width="512" height="357.999" fill="white"/>
</clipPath>
</defs>
</svg>
