<svg width="512" height="246" viewBox="0 0 512 246" fill="none" xmlns="http://www.w3.org/2000/svg">
<g clip-path="url(#clip0_78_2710)">
<path d="M453.033 244.344L454.778 211.895C454.778 211.895 512 200.031 512 165.837C512 131.644 418.49 127.457 409.069 143.158C408.975 143.315 408.881 143.472 408.788 143.629C397.152 163.253 403.722 188.73 423.523 200.062C430.293 203.937 438.366 207.254 447.799 209.103L447.135 243.575" fill="#CCCCCC"/>
<path d="M399.96 67.1821C417.801 67.1821 432.264 52.7189 432.264 34.8777C432.264 17.0364 417.801 2.57321 399.96 2.57321C382.119 2.57321 367.655 17.0364 367.655 34.8777C367.655 52.7189 382.119 67.1821 399.96 67.1821Z" fill="#FFD166"/>
<path d="M352.302 236.652L315.868 234.329L313.904 70.4991C313.856 66.5226 315.442 62.6287 318.254 59.8165L357.286 20.7842C362.75 15.3208 371.35 14.9259 377.291 19.8681L419.649 55.1047C423.105 57.9793 425.057 62.2059 425.004 66.7006L423.548 189.909L441.959 215.479L441.998 215.533L445.117 242.568L352.302 236.652Z" fill="#E6E6E6"/>
<path d="M358.426 58.9305V51.3336C358.426 49.3283 360.057 47.6969 362.062 47.6969H372.736C374.741 47.6969 376.372 49.3283 376.372 51.3336V58.9305C376.372 60.9357 374.741 62.5672 372.736 62.5672H362.062C360.057 62.5672 358.426 60.9357 358.426 58.9305Z" fill="#338051"/>
<path d="M335.864 117.899V89.7912C335.864 87.786 337.495 86.1545 339.5 86.1545H355.302C357.307 86.1545 358.938 87.786 358.938 89.7912V117.899C358.938 119.904 357.307 121.536 355.302 121.536H339.5C337.495 121.536 335.864 119.904 335.864 117.899Z" fill="#3F3D56"/>
<path d="M371.581 183.693C369.672 183.625 368.132 182.075 368.075 180.165L367.276 152.998C367.242 151.838 367.744 150.76 368.653 150.04C369.563 149.32 370.727 149.079 371.848 149.377L372.647 149.59C374.237 150.014 375.347 151.459 375.347 153.104V180.058C375.347 181.054 374.952 181.983 374.236 182.675C373.551 183.336 372.66 183.695 371.714 183.695C371.67 183.695 371.626 183.694 371.581 183.693Z" fill="#3F3D56"/>
<path d="M323.13 182.675C322.414 181.983 322.019 181.054 322.019 180.058V153.104C322.019 151.459 323.129 150.014 324.719 149.59L325.518 149.377C326.64 149.079 327.803 149.32 328.712 150.04C329.622 150.76 330.124 151.838 330.09 152.998L329.291 180.165C329.235 182.075 327.694 183.625 325.784 183.693C325.74 183.694 325.696 183.695 325.652 183.695C324.706 183.695 323.814 183.335 323.13 182.675Z" fill="#3F3D56"/>
<path d="M338.428 179.944V151.755C338.428 149.765 339.986 148.168 341.976 148.119L356.337 147.769C358.328 147.741 360.003 149.304 360.061 151.299L360.889 179.839C360.917 180.83 360.553 181.767 359.862 182.478C359.171 183.189 358.245 183.581 357.253 183.581H342.064C340.059 183.581 338.428 181.949 338.428 179.944Z" fill="#3F3D56"/>
<path d="M423.315 199.207L434.572 219.218L435.864 241.724L444.827 242.293L441.751 215.629L423.291 189.99C421.698 192.858 421.707 196.347 423.315 199.207Z" fill="#CCCCCC"/>
<path d="M435.504 235.282L398.97 235.782L398.977 236.295L435.511 235.795L435.504 235.282Z" fill="#3F3D56"/>
<path d="M433.288 230.757L398.648 231.027L398.652 231.54L433.292 231.27L433.288 230.757Z" fill="#3F3D56"/>
<path d="M431.49 226.132L398.355 226.78L398.365 227.292L431.5 226.645L431.49 226.132Z" fill="#3F3D56"/>
<path d="M430.461 221.533L398.641 222.59L398.658 223.103L430.478 222.046L430.461 221.533Z" fill="#3F3D56"/>
<path d="M428.923 217.438L398.35 218.513L398.368 219.026L428.941 217.951L428.923 217.438Z" fill="#3F3D56"/>
<path d="M426.88 213.834H397.103V214.347H426.88V213.834Z" fill="#3F3D56"/>
<path d="M425.339 210.236L396.4 210.575L396.406 211.088L425.345 210.749L425.339 210.236Z" fill="#3F3D56"/>
<path d="M423.795 206.65L395.754 207.581L395.771 208.093L423.812 207.162L423.795 206.65Z" fill="#3F3D56"/>
<path d="M422.774 203.079L395.084 203.566L395.093 204.079L422.783 203.592L422.774 203.079Z" fill="#3F3D56"/>
<path d="M420.719 199.528L394.205 200.356L394.221 200.869L420.735 200.04L420.719 199.528Z" fill="#3F3D56"/>
<path d="M419.699 196.4L393.42 196.657L393.425 197.169L419.704 196.913L419.699 196.4Z" fill="#3F3D56"/>
<path d="M391.499 185.841V151.067C391.499 149.062 393.131 147.43 395.136 147.43H411.963C413.968 147.43 415.599 149.062 415.599 151.067V185.841C415.599 187.846 413.968 189.478 411.963 189.478H395.136C393.131 189.478 391.499 187.846 391.499 185.841Z" fill="#338051"/>
<path d="M352.302 236.652L322.515 234.754L322.275 234.739V211.686C322.275 208.771 324.647 206.399 327.562 206.399H356.984C359.899 206.399 362.271 208.771 362.271 211.686V236.652H362.015L352.302 236.652Z" fill="#CCCCCC"/>
<path d="M393.55 122.77V96.2009C393.55 94.1956 395.182 92.5641 397.187 92.5641H402.733C404.738 92.5641 406.369 94.1956 406.369 96.2009V122.77C406.369 124.775 404.738 126.407 402.733 126.407H397.187C395.182 126.407 393.55 124.775 393.55 122.77Z" fill="#3F3D56"/>
<path d="M399.191 239.216L397.652 216.654L393.038 195.118L391.756 189.221C389.121 187.43 385.574 189.422 385.733 192.604L385.859 195.118L390.474 216.654L392.012 239.216" fill="#CCCCCC"/>
<path d="M224.622 228.447L188.189 226.125L186.224 62.2947C186.177 58.3183 187.762 54.4244 190.574 51.6122L229.607 12.5799C235.071 7.11573 243.67 6.72188 249.611 11.6638L291.97 46.9004C295.426 49.775 297.377 54.0016 297.324 58.4963L295.869 181.705L314.279 207.275L314.318 207.329L317.438 234.364L224.622 228.447Z" fill="#E6E6E6"/>
<path d="M230.746 50.7261V43.1292C230.746 41.124 232.377 39.4925 234.383 39.4925H245.056C247.062 39.4925 248.693 41.124 248.693 43.1292V50.7261C248.693 52.7314 247.062 54.3628 245.056 54.3628H234.383C232.377 54.3628 230.746 52.7314 230.746 50.7261Z" fill="#338051"/>
<path d="M208.184 109.695V81.5869C208.184 79.5817 209.816 77.9502 211.821 77.9502H227.622C229.627 77.9502 231.259 79.5817 231.259 81.5869V109.695C231.259 111.7 229.627 113.331 227.622 113.331H211.821C209.816 113.331 208.184 111.7 208.184 109.695Z" fill="#3F3D56"/>
<path d="M241.292 142.238C240.511 142.856 240.08 143.783 240.11 144.778L240.908 171.946C240.957 173.587 242.28 174.918 243.92 174.976C244.783 175.01 245.585 174.695 246.2 174.101C246.816 173.508 247.155 172.709 247.155 171.854V144.9C247.155 143.487 246.201 142.246 244.836 141.882L244.036 141.668C243.766 141.596 243.493 141.561 243.222 141.561C242.529 141.561 241.854 141.793 241.292 142.238Z" fill="#3F3D56"/>
<path d="M195.45 174.471C194.734 173.779 194.339 172.85 194.339 171.854V144.9C194.339 143.255 195.45 141.81 197.039 141.386L197.838 141.173C198.958 140.875 200.124 141.115 201.033 141.836C201.943 142.556 202.445 143.634 202.411 144.793L201.611 171.961C201.555 173.871 200.015 175.421 198.105 175.489C198.061 175.49 198.016 175.491 197.972 175.491C197.026 175.491 196.135 175.131 195.45 174.471Z" fill="#3F3D56"/>
<path d="M210.748 171.74V143.551C210.748 141.561 212.306 139.964 214.296 139.915L228.658 139.565C228.688 139.564 228.718 139.564 228.748 139.564C230.703 139.564 232.325 141.13 232.382 143.095L233.209 171.634C233.238 172.625 232.873 173.563 232.182 174.274C231.492 174.985 230.565 175.376 229.574 175.376H214.385C212.379 175.376 210.748 173.745 210.748 171.74Z" fill="#3F3D56"/>
<path d="M295.636 191.002L306.892 211.014L308.185 233.519L317.148 234.088L314.071 207.424L295.611 181.786C294.018 184.654 294.027 188.143 295.636 191.002Z" fill="#CCCCCC"/>
<path d="M307.825 227.078L271.29 227.578L271.297 228.09L307.832 227.591L307.825 227.078Z" fill="#3F3D56"/>
<path d="M305.608 222.552L270.968 222.823L270.972 223.336L305.612 223.065L305.608 222.552Z" fill="#3F3D56"/>
<path d="M303.81 217.928L270.676 218.575L270.686 219.088L303.82 218.441L303.81 217.928Z" fill="#3F3D56"/>
<path d="M302.782 213.329L270.962 214.386L270.979 214.898L302.799 213.842L302.782 213.329Z" fill="#3F3D56"/>
<path d="M301.243 209.234L270.671 210.309L270.689 210.822L301.261 209.747L301.243 209.234Z" fill="#3F3D56"/>
<path d="M299.201 205.63H269.424V206.143H299.201V205.63Z" fill="#3F3D56"/>
<path d="M297.659 202.032L268.721 202.371L268.727 202.884L297.665 202.545L297.659 202.032Z" fill="#3F3D56"/>
<path d="M296.115 198.445L268.074 199.376L268.091 199.889L296.132 198.958L296.115 198.445Z" fill="#3F3D56"/>
<path d="M295.094 194.875L267.404 195.362L267.413 195.874L295.103 195.388L295.094 194.875Z" fill="#3F3D56"/>
<path d="M293.039 191.323L266.526 192.152L266.542 192.665L293.055 191.836L293.039 191.323Z" fill="#3F3D56"/>
<path d="M292.019 188.196L265.74 188.452L265.745 188.965L292.024 188.708L292.019 188.196Z" fill="#3F3D56"/>
<path d="M263.82 177.637V142.863C263.82 140.858 265.451 139.226 267.456 139.226H284.283C286.289 139.226 287.92 140.858 287.92 142.863V177.637C287.92 179.642 286.289 181.273 284.283 181.273H267.456C265.451 181.273 263.82 179.642 263.82 177.637Z" fill="#338051"/>
<path d="M224.622 228.447L194.836 226.55L194.596 226.535V203.482C194.596 200.567 196.968 198.195 199.883 198.195H229.305C232.22 198.195 234.592 200.567 234.592 203.482V228.448H234.335L224.622 228.447Z" fill="#CCCCCC"/>
<path d="M265.871 114.566V87.9966C265.871 85.9913 267.502 84.3598 269.507 84.3598H275.054C277.059 84.3598 278.69 85.9913 278.69 87.9966V114.566C278.69 116.571 277.059 118.203 275.054 118.203H269.507C267.502 118.203 265.871 116.571 265.871 114.566Z" fill="#3F3D56"/>
<path d="M271.511 231.012L269.973 208.45L265.358 186.914L264.076 181.017C261.442 179.226 257.895 181.218 258.054 184.4L258.179 186.914L262.794 208.45L264.333 231.012" fill="#CCCCCC"/>
<path d="M96.9428 220.243L60.5096 217.921L58.5447 54.0904C58.4971 50.114 60.0825 46.2201 62.8947 43.4079L101.927 4.37562C107.391 -1.08833 115.991 -1.48217 121.931 3.45949L164.29 38.6961C167.746 41.5707 169.697 45.7972 169.644 50.292L168.189 173.501L186.6 199.07L186.638 199.125L189.758 226.16L96.9428 220.243Z" fill="#E6E6E6"/>
<path d="M103.066 42.5218V34.9249C103.066 32.9197 104.698 31.2882 106.703 31.2882H117.377C119.382 31.2882 121.013 32.9197 121.013 34.9249V42.5218C121.013 44.5271 119.382 46.1586 117.377 46.1586H106.703C104.698 46.1586 103.066 44.5271 103.066 42.5218Z" fill="#338051"/>
<path d="M80.5046 101.49V73.3826C80.5046 71.3774 82.1361 69.7459 84.1416 69.7459H99.9428C101.948 69.7459 103.579 71.3774 103.579 73.3826V101.49C103.579 103.496 101.948 105.127 99.9428 105.127H84.1416C82.1361 105.127 80.5046 103.496 80.5046 101.49Z" fill="#3F3D56"/>
<path d="M116.223 167.284C114.313 167.217 112.773 165.667 112.716 163.756L111.917 136.589C111.883 135.429 112.385 134.351 113.294 133.631C114.204 132.911 115.368 132.67 116.489 132.968L117.288 133.182C118.878 133.606 119.988 135.05 119.988 136.695V163.65C119.988 164.645 119.593 165.575 118.877 166.266C118.192 166.927 117.301 167.286 116.355 167.286C116.311 167.286 116.267 167.286 116.223 167.284Z" fill="#3F3D56"/>
<path d="M69.4257 133.429L70.2247 133.216C72.4106 132.633 74.5411 134.32 74.4746 136.582L73.6755 163.749C73.6231 165.53 72.1971 166.965 70.4164 167.028C68.5038 167.096 66.9164 165.564 66.9164 163.65V136.695C66.9164 135.164 67.946 133.824 69.4257 133.429Z" fill="#3F3D56"/>
<path d="M83.0685 163.536V135.346C83.0685 133.356 84.6268 131.759 86.6168 131.71L100.978 131.36C102.979 131.328 104.644 132.895 104.702 134.891L105.53 163.43C105.558 164.421 105.194 165.358 104.503 166.069C103.812 166.78 102.886 167.172 101.894 167.172H86.7054C84.6999 167.172 83.0685 165.541 83.0685 163.536Z" fill="#3F3D56"/>
<path d="M167.956 182.798L179.213 202.81L180.505 225.315L189.468 225.884L186.392 199.22L167.932 173.582C166.339 176.45 166.348 179.939 167.956 182.798Z" fill="#CCCCCC"/>
<path d="M180.145 218.874L143.611 219.373L143.618 219.886L180.152 219.386L180.145 218.874Z" fill="#3F3D56"/>
<path d="M177.929 214.348L143.289 214.619L143.293 215.132L177.933 214.861L177.929 214.348Z" fill="#3F3D56"/>
<path d="M176.131 209.724L142.996 210.371L143.006 210.884L176.141 210.237L176.131 209.724Z" fill="#3F3D56"/>
<path d="M175.102 205.125L143.282 206.181L143.299 206.694L175.119 205.638L175.102 205.125Z" fill="#3F3D56"/>
<path d="M173.564 201.03L142.991 202.104L143.009 202.617L173.582 201.542L173.564 201.03Z" fill="#3F3D56"/>
<path d="M171.521 197.426H141.744V197.938H171.521V197.426Z" fill="#3F3D56"/>
<path d="M169.98 193.827L141.041 194.167L141.047 194.679L169.986 194.34L169.98 193.827Z" fill="#3F3D56"/>
<path d="M168.436 190.241L140.395 191.172L140.412 191.685L168.453 190.754L168.436 190.241Z" fill="#3F3D56"/>
<path d="M167.415 186.67L139.725 187.157L139.734 187.67L167.424 187.183L167.415 186.67Z" fill="#3F3D56"/>
<path d="M165.36 183.119L138.846 183.948L138.862 184.46L165.376 183.632L165.36 183.119Z" fill="#3F3D56"/>
<path d="M164.34 179.991L138.061 180.248L138.066 180.761L164.345 180.504L164.34 179.991Z" fill="#3F3D56"/>
<path d="M136.14 169.432V134.659C136.14 132.653 137.772 131.022 139.777 131.022H156.604C158.609 131.022 160.24 132.653 160.24 134.659V169.432C160.24 171.437 158.609 173.069 156.604 173.069H139.777C137.772 173.069 136.14 171.437 136.14 169.432Z" fill="#338051"/>
<path d="M96.9428 220.243L67.1561 218.346L66.9163 218.33V195.278C66.9163 192.362 69.2883 189.99 72.2037 189.99H101.625C104.541 189.99 106.912 192.362 106.912 195.278V220.244H106.656L96.9428 220.243Z" fill="#CCCCCC"/>
<path d="M138.191 106.362V79.7923C138.191 77.787 139.823 76.1555 141.828 76.1555H147.374C149.379 76.1555 151.01 77.787 151.01 79.7923V106.362C151.01 108.367 149.379 109.998 147.374 109.998H141.828C139.823 109.998 138.191 108.367 138.191 106.362Z" fill="#3F3D56"/>
<path d="M143.832 222.808L142.293 200.246L137.679 178.709L136.397 172.813C133.762 171.021 130.215 173.014 130.374 176.195L130.5 178.709L135.115 200.246L136.653 222.808" fill="#CCCCCC"/>
<path d="M49.9964 217.167L51.741 184.718C51.741 184.718 108.963 172.855 108.963 138.661C108.963 104.467 15.4535 100.28 6.03278 115.981C5.93857 116.138 5.84494 116.295 5.75188 116.452C-5.88418 136.076 0.685399 161.553 20.486 172.886C27.2567 176.761 35.3294 180.077 44.7626 181.926L44.0981 216.398" fill="#CCCCCC"/>
<path d="M12.9174 214.418L12.8513 215.441L479.41 245.571L479.476 244.548L12.9174 214.418Z" fill="#CCCCCC"/>
</g>
<defs>
<clipPath id="clip0_78_2710">
<rect width="512" height="245.625" fill="white"/>
</clipPath>
</defs>
</svg>
