<svg width="512" height="350" viewBox="0 0 512 350" fill="none" xmlns="http://www.w3.org/2000/svg">
<g clip-path="url(#clip0_78_2781)">
<path d="M151.475 55.972C166.931 55.972 179.461 43.4422 179.461 27.986C179.461 12.5297 166.931 0 151.475 0C136.019 0 123.489 12.5297 123.489 27.986C123.489 43.4422 136.019 55.972 151.475 55.972Z" fill="#FFD166"/>
<path d="M201.979 6.51381C188.416 4.68049 172.931 12.0115 169.416 25.2389C168.53 22.8871 166.919 20.8778 164.816 19.5013C162.714 18.1247 160.228 17.4523 157.718 17.5811C155.208 17.7099 152.804 18.6332 150.853 20.2178C148.903 21.8023 147.506 23.9659 146.866 26.3961L148.419 27.5082C177.484 33.7936 207.572 33.6576 236.579 27.1096C227.145 17.1944 215.542 8.34711 201.979 6.51381Z" fill="#F0F0F0"/>
<path d="M143.812 43.8284C130.249 41.9951 114.764 49.3261 111.249 62.5535C110.363 60.2017 108.752 58.1924 106.649 56.8159C104.547 55.4394 102.061 54.767 99.551 54.8957C97.0411 55.0245 94.6372 55.9479 92.6865 57.5324C90.7358 59.1169 89.3393 61.2805 88.6987 63.7107L90.2515 64.8228C119.317 71.1083 149.405 70.9722 178.412 64.4242C168.978 54.509 157.375 45.6617 143.812 43.8284Z" fill="#F0F0F0"/>
<path d="M247.352 118.67C242.761 111.077 237.321 102.971 228.802 100.491C218.936 97.6202 208.801 103.324 200.205 108.952C174.496 125.784 149.737 144.026 126.043 163.593L126.069 163.888C144.516 162.616 162.963 161.344 181.409 160.071C194.737 159.152 208.523 158.106 220.301 151.802C224.77 149.409 229.127 146.213 234.191 145.991C240.484 145.714 245.97 150.108 250.282 154.7C275.786 181.858 283.166 223.39 311.779 247.251C293.737 202.755 272.193 159.76 247.352 118.67Z" fill="#F2F2F2"/>
<path d="M404.123 349.024C401.302 345.462 400.15 344.628 397.368 341.034C374.716 311.737 353.424 281.45 333.494 250.173C319.956 228.931 307.09 207.281 294.895 185.224C289.089 174.737 283.443 164.168 277.955 153.517C273.697 145.258 269.534 136.95 265.466 128.593C264.303 126.206 263.172 123.808 262.047 121.405C259.397 115.752 256.796 110.073 254.003 104.498C250.82 98.1432 246.946 91.4815 241.102 87.2122C238.442 85.1896 235.262 83.9658 231.932 83.6838C227.174 83.3765 222.785 85.341 218.658 87.4866C188.466 103.23 160.2 122.968 134.634 145.429C109.003 167.939 86.0925 193.371 66.3703 221.205C65.7669 222.066 64.3401 221.243 64.9492 220.376C67.3473 216.985 69.7929 213.63 72.286 210.312C103.286 169.083 141.297 133.628 184.581 105.568C191.863 100.849 199.282 96.3507 206.838 92.0741C210.646 89.9176 214.471 87.7884 218.362 85.791C222.175 83.832 226.225 82.0705 230.582 82.0047C245.409 81.7742 253.086 98.5658 258.36 109.864C260.017 113.42 261.694 116.965 263.392 120.499C269.806 133.916 276.468 147.21 283.377 160.382C287.641 168.514 291.998 176.599 296.448 184.636C310.298 209.665 325.019 234.186 340.611 258.201C361.266 290.012 381.756 318.113 405.286 347.86C405.934 348.684 404.776 349.858 404.123 349.024Z" fill="#E4E4E4"/>
<path d="M133.169 137.137C132.308 136.177 131.452 135.216 130.585 134.256C123.747 126.694 116.411 119.221 107.021 114.885C102.545 112.753 97.6575 111.62 92.6992 111.566C87.574 111.582 82.564 112.926 77.8284 114.809C75.5895 115.703 73.3999 116.718 71.2435 117.799C68.7795 119.039 66.3594 120.362 63.9506 121.695C59.4289 124.198 54.9658 126.81 50.5613 129.531C41.7978 134.948 33.3087 140.777 25.094 147.02C20.8356 150.258 16.6651 153.601 12.5825 157.051C8.7852 160.256 5.06474 163.546 1.42109 166.923C0.641914 167.642 -0.521467 166.478 0.257684 165.76C1.21799 164.865 2.18926 163.976 3.16054 163.098C5.90426 160.618 8.69193 158.185 11.5235 155.8C16.687 151.443 21.9843 147.254 27.4152 143.234C35.8604 136.978 44.5964 131.147 53.6231 125.74C58.1339 123.04 62.7068 120.453 67.3417 117.98C68.7412 117.234 70.157 116.504 71.5891 115.813C74.8388 114.174 78.2154 112.799 81.686 111.703C86.6022 110.112 91.8038 109.601 96.9356 110.205C101.891 110.925 106.664 112.577 111.005 115.072C120.224 120.225 127.374 128.193 134.332 135.968C135.035 136.758 133.877 137.927 133.169 137.137Z" fill="#E4E4E4"/>
<path d="M322.06 215.496L344.151 207.417L355.119 203.405C358.691 202.099 362.254 200.611 365.947 199.676C369.212 198.848 372.529 198.713 375.748 199.801C378.588 200.852 381.188 202.463 383.393 204.539C385.645 206.614 387.741 208.852 389.663 211.235C392.051 214.105 394.403 217.005 396.767 219.895C406.52 231.823 416.21 243.803 425.836 255.835C435.462 267.867 445.023 279.95 454.52 292.083C464.04 304.247 473.495 316.461 482.885 328.726C484.035 330.229 485.184 331.732 486.332 333.236C486.967 334.067 488.397 333.248 487.754 332.405C478.295 320.017 468.771 307.679 459.18 295.392C449.566 283.075 439.886 270.811 430.139 258.599C420.392 246.387 410.579 234.228 400.701 222.123C398.24 219.107 395.775 216.094 393.306 213.085C391.223 210.546 389.164 207.981 386.879 205.618C382.686 201.281 377.447 197.448 371.176 197.344C367.488 197.283 363.92 198.453 360.494 199.693C356.801 201.029 353.117 202.39 349.429 203.739L327.184 211.875L321.622 213.909C320.635 214.27 321.062 215.862 322.06 215.496Z" fill="#E4E4E4"/>
<path d="M104.114 124.4C92.8884 118.631 78.5119 119.761 68.196 126.969C87.8728 130.364 107.334 134.906 126.481 140.572C118.53 135.913 112.311 128.613 104.114 124.4Z" fill="#F2F2F2"/>
<path d="M68.0856 126.949L65.9244 128.706C66.6554 128.091 67.4154 127.515 68.1961 126.969C68.1592 126.963 68.1225 126.956 68.0856 126.949Z" fill="#F2F2F2"/>
<path d="M382.561 215.577C380.386 212.93 378.035 210.159 374.783 209.083L371.746 209.203C394.862 250.05 426.082 285.742 463.49 314.088C436.514 281.251 409.537 248.414 382.561 215.577Z" fill="#F2F2F2"/>
<path d="M156.419 318.968C157.657 309.012 163.827 299.202 173.322 295.962C169.578 306.21 169.579 317.451 173.325 327.698C174.784 331.645 176.817 335.882 175.445 339.86C174.591 342.335 172.502 344.229 170.167 345.413C167.832 346.597 165.24 347.161 162.681 347.714L162.178 348.13C158.115 338.957 155.181 328.924 156.419 318.968Z" fill="#F0F0F0"/>
<path d="M173.416 296.15C167.887 302.346 164.45 310.126 163.594 318.386C163.379 320.161 163.444 321.959 163.788 323.714C164.178 325.412 165.016 326.975 166.215 328.24C167.309 329.442 168.567 330.544 169.35 331.991C169.739 332.738 169.967 333.558 170.017 334.399C170.067 335.239 169.94 336.081 169.642 336.869C168.951 338.851 167.589 340.467 166.202 342C164.662 343.703 163.036 345.447 162.381 347.704C162.302 347.978 161.882 347.839 161.961 347.566C163.1 343.638 166.913 341.407 168.731 337.87C169.579 336.219 169.935 334.303 169.14 332.561C168.444 331.037 167.148 329.899 166.03 328.692C164.842 327.475 163.971 325.986 163.492 324.354C163.06 322.623 162.925 320.831 163.094 319.054C163.411 315.049 164.356 311.118 165.894 307.406C167.625 303.159 170.071 299.24 173.124 295.819C173.313 295.607 173.604 295.94 173.416 296.15Z" fill="white"/>
<path d="M163.713 315.71C162.347 315.379 161.143 314.572 160.317 313.435C159.49 312.297 159.095 310.903 159.201 309.501C159.224 309.217 159.666 309.239 159.643 309.523C159.541 310.828 159.91 312.127 160.682 313.185C161.454 314.242 162.578 314.989 163.852 315.29C164.129 315.356 163.989 315.776 163.713 315.71Z" fill="white"/>
<path d="M165.58 327.703C168.048 326.23 169.87 323.88 170.682 321.123C170.762 320.85 171.182 320.989 171.102 321.262C170.251 324.129 168.35 326.571 165.779 328.098C165.534 328.244 165.336 327.848 165.58 327.703Z" fill="white"/>
<path d="M168.036 303.578C168.537 303.817 169.091 303.927 169.646 303.899C170.201 303.87 170.74 303.705 171.215 303.417C171.459 303.268 171.656 303.664 171.414 303.812C170.888 304.128 170.292 304.31 169.679 304.342C169.066 304.375 168.454 304.257 167.897 303.998C167.842 303.978 167.797 303.938 167.771 303.886C167.745 303.834 167.74 303.775 167.756 303.719C167.775 303.663 167.815 303.617 167.867 303.591C167.919 303.565 167.98 303.56 168.036 303.578Z" fill="white"/>
<path d="M202.264 313.745C202.115 313.842 201.966 313.939 201.816 314.04C199.817 315.354 197.927 316.83 196.167 318.451C196.028 318.574 195.89 318.701 195.756 318.828C191.556 322.778 188.125 327.474 185.639 332.677C184.651 334.748 183.823 336.891 183.161 339.088C182.246 342.122 181.496 345.484 179.686 347.966C179.501 348.227 179.299 348.476 179.082 348.712H162.725C162.688 348.694 162.65 348.679 162.613 348.66L161.96 348.69C161.986 348.574 162.016 348.455 162.042 348.339C162.057 348.272 162.076 348.205 162.091 348.138C162.102 348.093 162.113 348.048 162.12 348.007C162.124 347.992 162.128 347.977 162.132 347.966C162.139 347.925 162.15 347.888 162.158 347.85C162.322 347.182 162.491 346.514 162.665 345.846C162.665 345.843 162.665 345.843 162.669 345.839C163.947 340.736 165.826 335.803 168.267 331.143C168.342 331.005 168.416 330.863 168.498 330.725C169.628 328.662 170.925 326.695 172.376 324.843C173.173 323.832 174.021 322.862 174.917 321.936C177.236 319.549 179.916 317.542 182.859 315.988C188.725 312.89 195.517 311.703 201.787 313.595C201.947 313.644 202.104 313.692 202.264 313.745Z" fill="#F0F0F0"/>
<path d="M202.228 313.952C194.082 315.57 186.654 319.713 180.998 325.793C179.757 327.08 178.726 328.555 177.945 330.163C177.234 331.754 176.962 333.506 177.158 335.238C177.307 336.856 177.648 338.494 177.402 340.121C177.264 340.951 176.951 341.743 176.485 342.445C176.019 343.146 175.41 343.742 174.698 344.191C172.953 345.358 170.893 345.828 168.862 346.217C166.608 346.649 164.259 347.063 162.377 348.471C162.149 348.642 161.898 348.278 162.125 348.108C165.399 345.658 169.787 346.172 173.368 344.442C175.039 343.635 176.477 342.319 176.891 340.449C177.253 338.814 176.903 337.124 176.738 335.487C176.522 333.801 176.723 332.087 177.322 330.496C178.02 328.854 178.991 327.342 180.196 326.025C182.861 323.017 185.982 320.448 189.444 318.41C193.384 316.062 197.696 314.405 202.194 313.511C202.472 313.456 202.504 313.897 202.228 313.952Z" fill="white"/>
<path d="M182.704 323.728C181.813 322.64 181.337 321.272 181.362 319.866C181.387 318.46 181.91 317.109 182.84 316.054C183.028 315.841 183.368 316.124 183.179 316.337C182.312 317.318 181.824 318.577 181.804 319.886C181.783 321.195 182.231 322.468 183.067 323.476C183.249 323.695 182.884 323.946 182.704 323.728Z" fill="white"/>
<path d="M176.974 334.428C179.831 334.737 182.7 333.958 185.009 332.246C185.237 332.076 185.489 332.439 185.261 332.609C182.855 334.386 179.868 335.191 176.895 334.863C176.611 334.831 176.692 334.396 176.974 334.428Z" fill="white"/>
<path d="M193.459 316.643C193.716 317.136 194.092 317.557 194.552 317.869C195.012 318.18 195.542 318.373 196.095 318.429C196.379 318.457 196.298 318.892 196.016 318.864C195.406 318.799 194.82 318.586 194.311 318.243C193.802 317.899 193.385 317.437 193.096 316.895C193.064 316.846 193.052 316.787 193.063 316.73C193.073 316.673 193.105 316.622 193.152 316.587C193.2 316.554 193.259 316.542 193.317 316.552C193.374 316.563 193.426 316.595 193.459 316.643Z" fill="white"/>
<path d="M275.344 264.87C267.321 247.124 267.617 224.63 280.068 209.655C284.234 230.42 295.61 249.043 312.185 262.227C318.595 267.289 326.252 272.251 328.003 280.229C329.093 285.193 327.548 290.444 324.878 294.768C322.208 299.092 318.486 302.65 314.806 306.155L314.393 307.355C298.381 296.269 283.367 282.616 275.344 264.87Z" fill="#F0F0F0"/>
<path d="M280.415 209.871C277.524 225.73 279.703 242.097 286.643 256.646C288.081 259.805 290.009 262.717 292.354 265.276C294.719 267.694 297.689 269.435 300.955 270.318C303.983 271.202 307.183 271.756 309.944 273.361C311.345 274.203 312.552 275.333 313.486 276.674C314.419 278.016 315.059 279.54 315.363 281.146C316.224 285.129 315.602 289.184 314.856 293.127C314.028 297.506 313.099 302.041 314.299 306.443C314.444 306.977 313.608 307.171 313.463 306.639C311.375 298.98 315.434 291.426 314.867 283.727C314.602 280.134 313.253 276.599 310.172 274.517C307.478 272.697 304.179 272.123 301.105 271.254C297.907 270.44 294.956 268.855 292.512 266.637C290.044 264.206 288.007 261.373 286.49 258.259C282.962 251.303 280.549 243.835 279.341 236.129C277.913 227.342 277.999 218.376 279.595 209.618C279.694 209.076 280.513 209.333 280.415 209.871Z" fill="white"/>
<path d="M284.133 252.093C281.533 252.926 278.723 252.808 276.203 251.76C273.682 250.712 271.617 248.802 270.375 246.372C270.125 245.879 270.879 245.468 271.129 245.961C272.281 248.227 274.206 250.005 276.554 250.976C278.903 251.948 281.522 252.047 283.937 251.257C284.463 251.086 284.655 251.923 284.133 252.093Z" fill="white"/>
<path d="M299.36 270.072C301.957 265.134 302.598 259.398 301.154 254.009C301.011 253.475 301.847 253.281 301.99 253.814C303.482 259.425 302.803 265.392 300.089 270.525C299.83 271.014 299.102 270.558 299.36 270.072Z" fill="white"/>
<path d="M279.017 227.621C280.089 227.508 281.117 227.131 282.008 226.523C282.899 225.914 283.625 225.094 284.121 224.136C284.374 223.644 285.101 224.1 284.85 224.589C284.297 225.645 283.495 226.55 282.512 227.224C281.529 227.898 280.396 228.322 279.212 228.457C279.101 228.479 278.986 228.458 278.891 228.399C278.795 228.339 278.725 228.246 278.696 228.137C278.671 228.026 278.69 227.91 278.75 227.813C278.81 227.717 278.906 227.648 279.017 227.621Z" fill="white"/>
<path d="M346.008 209.829C345.859 210.14 345.71 210.452 345.564 210.77C343.582 214.972 341.944 219.328 340.668 223.795C340.564 224.139 340.463 224.489 340.369 224.835C337.408 235.629 336.476 246.88 337.622 258.014C338.082 262.445 338.878 266.834 340.004 271.143C341.56 277.094 343.719 283.424 343.232 289.366C343.188 289.987 343.106 290.604 342.986 291.215L315.888 307.765C315.808 307.772 315.731 307.785 315.65 307.792L314.598 308.502C314.525 308.284 314.453 308.056 314.38 307.838C314.336 307.712 314.299 307.582 314.256 307.455C314.229 307.37 314.202 307.284 314.173 307.209C314.164 307.18 314.155 307.152 314.15 307.129C314.121 307.054 314.102 306.98 314.077 306.911C313.673 305.638 313.277 304.361 312.89 303.078C312.886 303.071 312.886 303.071 312.888 303.062C309.961 293.279 307.825 283.167 307.291 273.051C307.275 272.747 307.255 272.437 307.252 272.125C307.036 267.564 307.194 262.993 307.724 258.458C308.022 255.976 308.445 253.51 308.992 251.07C310.419 244.77 312.827 238.733 316.129 233.18C322.714 222.113 332.765 213.274 345.066 210.065C345.38 209.983 345.689 209.904 346.008 209.829Z" fill="#F0F0F0"/>
<path d="M346.157 210.21C334.301 221.131 326.187 235.511 322.968 251.307C322.215 254.695 322 258.181 322.333 261.635C322.765 264.991 324.088 268.169 326.164 270.839C328.049 273.369 330.271 275.738 331.509 278.681C332.12 280.197 332.404 281.825 332.342 283.459C332.28 285.093 331.873 286.695 331.149 288.16C329.438 291.858 326.501 294.721 323.531 297.421C320.233 300.419 316.761 303.48 315.068 307.717C314.863 308.231 314.079 307.883 314.284 307.37C317.228 299.998 325.016 296.411 329.199 289.921C331.151 286.893 332.202 283.259 330.995 279.742C329.941 276.666 327.652 274.222 325.72 271.677C323.657 269.101 322.256 266.059 321.639 262.817C321.132 259.39 321.212 255.902 321.875 252.502C323.246 244.824 325.816 237.409 329.491 230.529C333.641 222.653 339.108 215.546 345.655 209.514C346.06 209.14 346.56 209.839 346.157 210.21Z" fill="white"/>
<path d="M323.705 246.16C321.128 245.26 318.955 243.473 317.574 241.119C316.193 238.765 315.693 235.997 316.165 233.308C316.262 232.765 317.111 232.89 317.014 233.435C316.57 235.937 317.036 238.516 318.327 240.706C319.617 242.895 321.648 244.551 324.053 245.375C324.575 245.554 324.225 246.338 323.705 246.16Z" fill="white"/>
<path d="M325.039 269.683C330.086 267.304 334.05 263.11 336.142 257.938C336.349 257.425 337.134 257.773 336.927 258.285C334.74 263.664 330.605 268.019 325.348 270.484C324.847 270.718 324.54 269.916 325.039 269.683Z" fill="white"/>
<path d="M334.354 223.54C335.279 224.096 336.327 224.414 337.404 224.464C338.482 224.515 339.555 224.297 340.528 223.831C341.026 223.59 341.332 224.392 340.837 224.632C339.76 225.142 338.574 225.381 337.384 225.328C336.193 225.274 335.034 224.93 334.007 224.325C333.905 224.276 333.826 224.19 333.785 224.085C333.745 223.98 333.746 223.863 333.788 223.759C333.834 223.655 333.92 223.574 334.026 223.533C334.132 223.492 334.25 223.495 334.354 223.54Z" fill="white"/>
<path d="M398.122 285.419L428.601 262.279L443.458 277.135L393.804 311.114L398.122 285.419Z" fill="#3F3D56"/>
<path d="M369.695 349.136H265.432L269.089 337.288C291.753 329.083 279.023 311.448 300.582 300.669C353.313 274.303 373.728 195.625 366.006 164.523L400.562 163.062C400.562 163.062 448.284 298.586 369.695 349.136Z" fill="#3F3D56"/>
<path d="M458.705 293.44C455.591 296.179 451.606 297.724 447.46 297.802C443.314 297.879 439.274 296.484 436.06 293.864L435.992 293.808L435.99 293.721C435.951 292.269 435.725 290.829 435.316 289.436C435.296 290.439 435.149 291.435 434.881 292.402L434.794 292.727L434.559 292.485C434.357 292.277 434.161 292.065 433.977 291.856C432.896 290.628 431.99 289.257 431.286 287.78C427.914 280.846 423.029 274.757 416.991 269.963C415.913 269.086 414.91 268.12 413.992 267.077C410.115 262.666 407.935 257.019 407.842 251.147C407.749 245.275 409.749 239.562 413.484 235.031C417.219 230.499 422.446 227.445 428.227 226.416C434.009 225.386 439.968 226.448 445.038 229.412L445.193 229.502L445.112 229.662C444.525 230.881 443.75 231.999 442.815 232.976C444.101 232.282 445.29 231.422 446.353 230.42L446.466 230.314L446.593 230.402C448.258 231.554 449.777 232.905 451.114 234.426L451.258 234.591C452.279 235.759 453.534 236.698 454.942 237.348C456.351 237.998 457.88 238.343 459.431 238.362C461.961 238.405 464.452 238.995 466.732 240.092C469.012 241.19 471.028 242.768 472.64 244.718C474.252 246.669 475.422 248.945 476.071 251.391C476.719 253.837 476.83 256.395 476.395 258.888L476.375 259.003L476.263 259.037C474.296 259.713 472.212 259.973 470.14 259.801C471.87 260.555 473.713 261.016 475.594 261.167L475.837 261.187L475.759 261.418C474.78 264.36 473.036 266.989 470.706 269.036L470.64 269.095C470.616 269.115 470.593 269.136 470.569 269.156C468.834 270.651 467.414 272.477 466.393 274.528C465.373 276.578 464.772 278.812 464.626 281.098C464.51 283.446 463.927 285.747 462.911 287.866C461.894 289.986 460.464 291.881 458.705 293.44Z" fill="#338051"/>
<path opacity="0.15" d="M461.895 287.808C461.863 288.439 461.797 289.068 461.698 289.692C463.405 287.07 464.388 284.042 464.545 280.917C464.568 280.439 464.618 279.962 464.686 279.488C463.027 281.961 462.063 284.835 461.895 287.808Z" fill="black"/>
<path opacity="0.15" d="M467.408 266.512C468.8 267.114 470.266 267.529 471.767 267.744C472.345 267.134 472.879 266.482 473.363 265.796C471.448 266.437 469.421 266.68 467.408 266.512Z" fill="black"/>
<path opacity="0.15" d="M473.831 260.758C473.986 262.272 473.944 263.8 473.706 265.304C474.537 264.04 475.2 262.673 475.678 261.237L475.755 261.006L475.512 260.987C474.948 260.939 474.387 260.862 473.831 260.758Z" fill="black"/>
<path opacity="0.15" d="M472.21 244.128C470.597 242.298 468.62 240.824 466.406 239.8C464.192 238.777 461.789 238.225 459.35 238.182C457.799 238.163 456.27 237.817 454.861 237.167C453.453 236.517 452.198 235.578 451.177 234.41L451.033 234.245C449.696 232.724 448.177 231.373 446.512 230.221L446.385 230.133L446.272 230.239C445.209 231.242 444.019 232.101 442.734 232.796C443.669 231.818 444.444 230.7 445.031 229.481L445.112 229.321L444.957 229.231C441.596 227.264 437.817 226.119 433.93 225.89C430.042 225.662 426.155 226.355 422.587 227.915C419.018 229.474 415.869 231.855 413.396 234.863C410.922 237.871 409.195 241.422 408.355 245.225C409.973 242.383 412.138 239.891 414.726 237.893C417.314 235.894 420.272 234.429 423.43 233.583C426.588 232.736 429.883 232.524 433.123 232.96C436.363 233.396 439.485 234.471 442.307 236.122L442.461 236.212L442.381 236.372C441.794 237.591 441.018 238.709 440.083 239.687C441.369 238.992 442.559 238.133 443.622 237.13L443.734 237.024L443.862 237.112C445.527 238.264 447.045 239.615 448.383 241.136L448.527 241.301C449.548 242.469 450.803 243.408 452.211 244.058C453.619 244.708 455.149 245.054 456.699 245.073C460.754 245.141 464.66 246.614 467.75 249.24C470.84 251.866 472.924 255.483 473.646 259.474C474.503 259.32 475.35 259.114 476.182 258.857L476.294 258.823L476.314 258.707C476.769 256.125 476.636 253.473 475.926 250.949C475.215 248.425 473.945 246.094 472.21 244.128Z" fill="black"/>
<path d="M509.098 171.983C509.097 185.336 504.36 198.257 495.73 208.446C487.1 218.636 475.136 225.435 461.965 227.635L461.687 227.681L461.471 227.501C457.88 224.506 453.916 221.99 449.678 220.015C452.06 222.198 454.158 224.671 455.924 227.376L456.525 228.279L455.442 228.331C454.508 228.377 453.579 228.399 452.683 228.399C447.415 228.404 442.172 227.677 437.104 226.239C414.083 219.69 389.362 218.57 363.627 222.91C359.215 223.652 354.748 224.024 350.274 224.024C306.395 224.024 270.697 188.319 270.697 144.431C270.673 127.698 275.932 111.385 285.724 97.8159C295.516 84.247 309.342 74.1155 325.23 68.8653L325.777 68.6842L325.993 69.2181C327.691 73.2291 328.746 77.4825 329.12 81.8219C330.175 77.2359 330.627 72.5319 330.464 67.829L330.447 67.3324L330.929 67.2114C337.257 65.6345 343.753 64.8377 350.274 64.8387L350.98 64.8416C355.973 64.8564 360.914 63.8187 365.48 61.796C370.045 59.7733 374.133 56.8112 377.477 53.1026C382.961 47.0759 389.685 42.3086 397.186 39.1287C404.688 35.9488 412.79 34.4318 420.934 34.6819C429.078 34.9321 437.071 36.9435 444.364 40.5778C451.656 44.2122 458.075 49.3831 463.178 55.735L463.415 56.0291L463.258 56.3738C459.962 63.6387 456.371 68.9314 452.085 72.8018C457.585 70.2215 462.62 66.7475 466.985 62.5209L467.548 61.9745L467.944 62.653C472.973 71.2788 475.622 81.0857 475.618 91.0708L475.617 91.3554C475.616 91.4559 475.616 91.5571 475.616 91.6576C475.616 106.932 481.523 121.409 491.849 131.421C497.28 136.693 501.603 142.997 504.565 149.962C507.527 156.928 509.068 164.414 509.098 171.983Z" fill="#338051"/>
<g opacity="0.15">
<path d="M440.127 38.6604C438.182 41.8885 435.788 44.8243 433.019 47.3802C436.985 45.5183 440.713 43.1879 444.125 40.4389C442.816 39.7942 441.483 39.2014 440.127 38.6604Z" fill="black"/>
<path d="M472.782 106C475.851 108.977 478.572 112.293 480.894 115.882C477.399 108.286 475.598 100.02 475.616 91.6576C475.616 91.5571 475.616 91.4559 475.617 91.3554L475.618 91.0708C475.622 81.0857 472.973 71.2788 467.944 62.653L467.548 61.9745L466.985 62.5209C463.875 65.5273 460.421 68.1571 456.696 70.356C457.656 84.0911 463.39 96.8925 472.782 106Z" fill="black"/>
<path d="M456.552 65.6493L456.551 65.9339C456.55 66.0343 456.55 66.1356 456.55 66.236C456.55 66.7898 456.56 67.3422 456.576 67.8937C459.233 64.3194 461.475 60.4546 463.258 56.3738L463.415 56.0291L463.178 55.7349C460.201 52.0312 456.773 48.7151 452.972 45.8641C455.338 52.1921 456.551 58.8932 456.552 65.6493Z" fill="black"/>
<path d="M491.849 131.421C489.135 128.781 486.723 125.847 484.658 122.673C488.356 130.551 490.179 139.177 489.985 147.877C489.791 156.577 487.585 165.114 483.54 172.818C479.495 180.523 473.721 187.186 466.67 192.286C459.619 197.386 451.483 200.784 442.899 202.214L442.62 202.259L442.405 202.079C438.814 199.085 434.85 196.568 430.612 194.594C432.994 196.776 435.092 199.249 436.858 201.955L437.458 202.858L436.376 202.91C435.441 202.955 434.513 202.978 433.616 202.978C428.349 202.982 423.106 202.255 418.038 200.818C395.017 194.268 370.295 193.148 344.561 197.489C340.149 198.23 335.682 198.603 331.208 198.603C311.704 198.618 292.879 191.439 278.338 178.441C284.788 192.066 294.971 203.581 307.705 211.65C320.438 219.719 335.199 224.01 350.274 224.024C354.748 224.024 359.215 223.652 363.627 222.91C389.362 218.57 414.083 219.689 437.104 226.239C442.172 227.677 447.415 228.404 452.683 228.399C453.579 228.399 454.507 228.377 455.442 228.331L456.524 228.279L455.924 227.376C454.158 224.671 452.06 222.198 449.678 220.015C453.916 221.99 457.88 224.506 461.471 227.501L461.687 227.681L461.965 227.635C472.273 225.92 481.901 221.375 489.775 214.507C497.65 207.639 503.461 198.717 506.561 188.738C509.66 178.76 509.925 168.116 507.328 157.995C504.73 147.874 499.371 138.674 491.849 131.421Z" fill="black"/>
</g>
<path d="M226.342 157.706C223.306 154.434 221.731 149.524 223.345 145.362C225.764 149.572 229.593 152.79 234.156 154.447C235.918 155.08 237.944 155.601 238.905 157.207C239.462 158.246 239.598 159.458 239.286 160.594C238.972 161.718 238.515 162.796 237.926 163.803L237.924 164.094C233.637 162.851 229.379 160.978 226.342 157.706Z" fill="#338051"/>
<path d="M377.177 252.613C374.14 249.341 372.565 244.431 374.18 240.27C376.598 244.479 380.428 247.697 384.99 249.354C386.752 249.987 388.778 250.508 389.74 252.114C390.296 253.153 390.432 254.365 390.12 255.501C389.806 256.625 389.349 257.703 388.761 258.71L388.759 259.001C384.471 257.758 380.213 255.885 377.177 252.613Z" fill="#338051"/>
<path d="M448.301 313.868C446.179 309.94 445.883 304.792 448.488 301.167C449.776 305.847 452.679 309.921 456.681 312.668C458.229 313.722 460.06 314.732 460.589 316.528C460.868 317.673 460.696 318.881 460.11 319.903C459.525 320.912 458.813 321.841 457.991 322.669L457.916 322.95C454.076 320.674 450.422 317.796 448.301 313.868Z" fill="#338051"/>
<path d="M499.568 238.027C497.446 234.099 497.15 228.951 499.755 225.326C501.043 230.006 503.945 234.08 507.948 236.827C509.496 237.881 511.327 238.891 511.856 240.687C512.135 241.832 511.963 243.04 511.377 244.062C510.791 245.071 510.079 246 509.258 246.828L509.183 247.109C505.343 244.834 501.689 241.955 499.568 238.027Z" fill="#338051"/>
<path d="M164.427 267.262C162.306 263.334 162.009 258.186 164.614 254.561C165.902 259.241 168.805 263.315 172.808 266.062C174.355 267.115 176.186 268.126 176.715 269.922C176.994 271.067 176.822 272.275 176.236 273.297C175.651 274.306 174.939 275.235 174.117 276.063L174.042 276.344C170.202 274.068 166.548 271.19 164.427 267.262Z" fill="#E6E6E6"/>
<path d="M355.985 304.876C357.828 290.061 367.009 275.465 381.138 270.644C375.566 285.892 375.567 302.62 381.141 317.867C383.312 323.74 386.338 330.045 384.296 335.964C383.025 339.646 379.917 342.464 376.443 344.226C372.968 345.988 369.112 346.827 365.304 347.65L364.554 348.27C358.509 334.62 354.143 319.69 355.985 304.876Z" fill="#E6E6E6"/>
<path d="M381.278 270.924C373.05 280.143 367.936 291.72 366.663 304.011C366.342 306.652 366.439 309.327 366.951 311.938C367.532 314.465 368.779 316.79 370.562 318.673C372.19 320.461 374.062 322.102 375.227 324.255C375.806 325.366 376.145 326.587 376.22 327.838C376.295 329.088 376.104 330.341 375.661 331.513C374.633 334.462 372.606 336.866 370.542 339.148C368.251 341.682 365.831 344.277 364.857 347.636C364.739 348.043 364.115 347.836 364.232 347.43C365.927 341.586 371.6 338.266 374.305 333.003C375.568 330.547 376.098 327.695 374.914 325.102C373.879 322.835 371.95 321.142 370.286 319.345C368.52 317.534 367.223 315.319 366.51 312.891C365.867 310.315 365.667 307.648 365.918 305.005C366.39 299.044 367.795 293.195 370.084 287.672C372.661 281.353 376.299 275.522 380.842 270.43C381.124 270.115 381.557 270.611 381.278 270.924Z" fill="white"/>
<path d="M366.84 300.029C364.807 299.535 363.015 298.335 361.785 296.643C360.555 294.95 359.967 292.875 360.126 290.789C360.159 290.367 360.817 290.4 360.783 290.822C360.632 292.765 361.18 294.697 362.328 296.271C363.477 297.844 365.15 298.956 367.046 299.404C367.458 299.502 367.249 300.126 366.84 300.029Z" fill="white"/>
<path d="M369.617 317.875C373.289 315.682 376 312.186 377.209 308.084C377.329 307.677 377.953 307.884 377.834 308.29C376.568 312.557 373.74 316.189 369.913 318.462C369.548 318.679 369.254 318.09 369.617 317.875Z" fill="white"/>
<path d="M373.271 281.976C374.018 282.331 374.841 282.495 375.667 282.453C376.493 282.411 377.295 282.165 378.002 281.736C378.364 281.515 378.658 282.104 378.298 282.324C377.515 282.794 376.628 283.065 375.716 283.113C374.804 283.161 373.893 282.986 373.065 282.601C372.984 282.571 372.917 282.512 372.878 282.435C372.839 282.358 372.831 282.268 372.855 282.186C372.883 282.103 372.942 282.035 373.02 281.995C373.098 281.956 373.188 281.949 373.271 281.976Z" fill="white"/>
<path d="M424.203 297.104C423.981 297.249 423.759 297.393 423.537 297.543C420.561 299.499 417.75 301.695 415.13 304.107C414.924 304.29 414.719 304.479 414.519 304.667C408.269 310.546 403.164 317.533 399.465 325.275C397.995 328.357 396.763 331.546 395.777 334.815C394.417 339.33 393.301 344.333 390.607 348.026C390.331 348.414 390.03 348.785 389.708 349.136H365.369C365.313 349.108 365.258 349.086 365.202 349.058L364.23 349.103C364.27 348.931 364.314 348.753 364.353 348.581C364.375 348.481 364.403 348.381 364.425 348.281C364.441 348.214 364.458 348.148 364.469 348.087C364.475 348.064 364.48 348.042 364.486 348.026C364.497 347.965 364.514 347.909 364.525 347.853C364.769 346.86 365.021 345.866 365.28 344.871C365.28 344.866 365.28 344.866 365.285 344.86C367.279 337.292 369.922 329.823 373.615 322.992C373.726 322.787 373.837 322.576 373.959 322.371C375.641 319.301 377.571 316.374 379.729 313.619C380.916 312.114 382.178 310.67 383.511 309.293C386.961 305.741 390.949 302.754 395.328 300.442C404.057 295.833 414.163 294.067 423.493 296.882C423.731 296.954 423.965 297.026 424.203 297.104Z" fill="#E6E6E6"/>
<path d="M424.149 297.413C412.029 299.82 400.975 305.985 392.559 315.032C390.712 316.947 389.179 319.142 388.016 321.535C386.958 323.902 386.554 326.51 386.845 329.086C387.068 331.494 387.574 333.932 387.208 336.352C387.002 337.588 386.537 338.766 385.844 339.81C385.151 340.854 384.245 341.739 383.185 342.408C380.588 344.144 377.523 344.843 374.501 345.423C371.146 346.066 367.651 346.682 364.852 348.777C364.512 349.031 364.138 348.49 364.477 348.236C369.348 344.59 375.877 345.356 381.206 342.782C383.692 341.581 385.832 339.623 386.448 336.84C386.987 334.407 386.467 331.893 386.22 329.457C385.899 326.948 386.198 324.398 387.09 322.03C388.128 319.586 389.573 317.336 391.366 315.377C395.331 310.902 399.975 307.078 405.128 304.046C410.989 300.552 417.405 298.087 424.098 296.757C424.513 296.675 424.56 297.331 424.149 297.413Z" fill="white"/>
<path d="M395.097 311.959C393.771 310.341 393.063 308.304 393.101 306.212C393.138 304.12 393.917 302.11 395.3 300.54C395.58 300.223 396.086 300.644 395.805 300.962C394.514 302.421 393.789 304.294 393.758 306.242C393.728 308.19 394.394 310.085 395.638 311.585C395.908 311.911 395.366 312.284 395.097 311.959Z" fill="white"/>
<path d="M386.571 327.88C390.823 328.34 395.092 327.181 398.527 324.633C398.867 324.381 399.242 324.922 398.902 325.174C395.322 327.819 390.877 329.016 386.453 328.528C386.032 328.481 386.151 327.834 386.571 327.88Z" fill="white"/>
<path d="M411.101 301.417C411.484 302.15 412.043 302.777 412.727 303.241C413.412 303.704 414.201 303.991 415.024 304.074C415.446 304.116 415.325 304.763 414.906 304.722C413.998 304.625 413.127 304.308 412.369 303.797C411.612 303.286 410.991 302.598 410.56 301.792C410.514 301.719 410.496 301.632 410.511 301.547C410.527 301.462 410.574 301.386 410.644 301.334C410.715 301.285 410.804 301.266 410.89 301.282C410.975 301.297 411.051 301.346 411.101 301.417Z" fill="white"/>
<path d="M232.444 306.907L212.243 291.57L202.397 301.416L235.305 323.936L232.444 306.907Z" fill="#3F3D56"/>
<path d="M251.284 349.136H320.386L317.962 341.283C302.941 335.846 311.378 324.158 297.09 317.014C262.141 299.539 248.611 247.394 253.729 226.781L230.827 225.813C230.827 225.813 199.198 315.633 251.284 349.136Z" fill="#3F3D56"/>
<path d="M188.367 304.043C188.27 302.528 187.872 301.047 187.196 299.688C186.519 298.329 185.578 297.119 184.428 296.128C184.413 296.115 184.397 296.101 184.381 296.087L184.337 296.049C182.793 294.692 181.638 292.95 180.988 291L180.937 290.846L181.098 290.833C182.345 290.733 183.566 290.428 184.713 289.928C183.34 290.042 181.958 289.869 180.655 289.422L180.58 289.399L180.567 289.323C180.279 287.67 180.352 285.975 180.782 284.354C181.212 282.733 181.987 281.224 183.056 279.932C184.124 278.639 185.46 277.593 186.971 276.866C188.483 276.139 190.134 275.747 191.81 275.719C192.838 275.707 193.852 275.477 194.785 275.047C195.718 274.616 196.55 273.994 197.227 273.22L197.322 273.11C198.209 272.102 199.215 271.207 200.319 270.443L200.403 270.385L200.478 270.455C201.182 271.119 201.971 271.689 202.823 272.15C202.203 271.502 201.689 270.76 201.3 269.953L201.247 269.847L201.349 269.787C204.709 267.823 208.659 267.119 212.491 267.801C216.323 268.484 219.786 270.508 222.262 273.511C224.738 276.514 226.063 280.301 226.002 284.193C225.94 288.084 224.495 291.827 221.925 294.75C221.317 295.442 220.652 296.081 219.938 296.663C215.936 299.84 212.698 303.876 210.464 308.471C209.997 309.45 209.397 310.359 208.68 311.173C208.558 311.311 208.428 311.452 208.294 311.59L208.139 311.75L208.081 311.535C207.903 310.894 207.806 310.233 207.792 309.569C207.522 310.492 207.372 311.447 207.346 312.409L207.345 312.467L207.3 312.504C205.634 313.863 203.622 314.734 201.49 315.017C199.358 315.3 197.189 314.986 195.226 314.108C193.262 313.231 191.581 311.825 190.37 310.048C189.159 308.27 188.465 306.191 188.367 304.043Z" fill="#E6E6E6"/>
<path opacity="0.15" d="M190.177 308.49C190.198 308.908 190.242 309.325 190.308 309.739C189.176 308.001 188.525 305.994 188.421 303.923C188.405 303.606 188.372 303.29 188.328 302.976C189.427 304.615 190.066 306.519 190.177 308.49Z" fill="black"/>
<path opacity="0.15" d="M186.523 294.376C185.601 294.775 184.629 295.05 183.635 295.192C183.251 294.788 182.898 294.356 182.576 293.901C183.846 294.326 185.189 294.487 186.523 294.376Z" fill="black"/>
<path opacity="0.15" d="M182.266 290.562C182.164 291.566 182.191 292.579 182.349 293.575C181.798 292.737 181.359 291.831 181.042 290.88L180.991 290.727L181.152 290.714C181.526 290.682 181.898 290.631 182.266 290.562Z" fill="black"/>
<path opacity="0.15" d="M183.341 279.541C184.41 278.328 185.72 277.351 187.187 276.672C188.655 275.994 190.248 275.628 191.864 275.6C192.892 275.587 193.905 275.358 194.839 274.927C195.772 274.496 196.604 273.874 197.281 273.1L197.376 272.991C198.262 271.983 199.269 271.087 200.372 270.323L200.457 270.265L200.531 270.335C201.236 271 202.024 271.569 202.877 272.03C202.257 271.382 201.743 270.641 201.354 269.833L201.301 269.727L201.403 269.667C203.631 268.363 206.135 267.605 208.711 267.453C211.288 267.302 213.864 267.761 216.229 268.795C218.594 269.828 220.682 271.406 222.321 273.4C223.96 275.394 225.105 277.747 225.661 280.267C224.589 278.384 223.154 276.732 221.439 275.408C219.724 274.083 217.763 273.112 215.67 272.551C213.577 271.99 211.394 271.85 209.246 272.139C207.099 272.428 205.03 273.14 203.159 274.234L203.057 274.294L203.11 274.4C203.499 275.208 204.013 275.949 204.633 276.597C203.781 276.136 202.993 275.567 202.288 274.902L202.213 274.832L202.129 274.89C201.025 275.654 200.019 276.55 199.133 277.558L199.037 277.667C198.361 278.441 197.529 279.063 196.595 279.494C195.662 279.925 194.648 280.154 193.621 280.167C190.933 280.212 188.345 281.188 186.297 282.929C184.249 284.669 182.868 287.066 182.389 289.711C181.821 289.609 181.26 289.473 180.709 289.302L180.634 289.28L180.621 289.203C180.319 287.491 180.407 285.734 180.878 284.061C181.349 282.388 182.191 280.843 183.341 279.541Z" fill="black"/>
<path d="M170.325 204.842C177.168 198.206 181.083 188.612 181.083 178.488C181.083 178.422 181.083 178.355 181.083 178.288L181.082 178.099C181.08 171.482 182.835 164.982 186.168 159.265L186.43 158.815L186.804 159.178C189.696 161.979 193.033 164.281 196.679 165.991C193.838 163.426 191.458 159.918 189.274 155.104L189.17 154.875L189.327 154.68C192.709 150.47 196.963 147.043 201.796 144.635C206.63 142.226 211.927 140.893 217.325 140.727C222.722 140.561 228.092 141.567 233.064 143.674C238.036 145.782 242.492 148.941 246.126 152.935C248.343 155.393 251.052 157.357 254.078 158.697C257.104 160.038 260.378 160.726 263.688 160.716L264.156 160.714C268.478 160.713 272.783 161.241 276.977 162.286L277.296 162.367L277.285 162.696C277.177 165.813 277.477 168.93 278.176 171.97C278.424 169.094 279.123 166.275 280.248 163.616L280.391 163.262L280.754 163.382C292.649 167.33 302.75 175.382 309.248 186.097C315.747 196.813 318.219 209.492 316.223 221.864C314.226 234.236 307.89 245.493 298.35 253.62C288.809 261.747 276.688 266.212 264.156 266.216C261.19 266.217 258.23 265.97 255.305 265.478C238.25 262.601 221.865 263.343 206.608 267.684C203.249 268.637 199.774 269.119 196.283 269.116C195.689 269.116 195.073 269.101 194.454 269.071L193.737 269.036L194.135 268.438C195.305 266.645 196.696 265.006 198.274 263.559C195.465 264.868 192.838 266.536 190.458 268.521L190.315 268.64L190.131 268.609C183.299 267.473 176.918 264.461 171.699 259.909C166.48 255.357 162.629 249.444 160.574 242.83C158.52 236.217 158.344 229.162 160.066 222.454C161.788 215.747 165.339 209.649 170.325 204.842Z" fill="#E6E6E6"/>
<g opacity="0.15">
<path d="M204.604 143.364C205.893 145.503 207.48 147.449 209.315 149.143C206.687 147.909 204.216 146.364 201.955 144.542C202.822 144.115 203.705 143.722 204.604 143.364Z" fill="black"/>
<path d="M182.961 187.994C180.928 189.967 179.124 192.165 177.585 194.544C179.901 189.509 181.095 184.03 181.083 178.488C181.083 178.422 181.083 178.355 181.082 178.288L181.082 178.099C181.079 171.482 182.835 164.982 186.168 159.265L186.43 158.815L186.804 159.178C188.865 161.17 191.154 162.913 193.623 164.37C192.987 173.474 189.186 181.958 182.961 187.994Z" fill="black"/>
<path d="M193.718 161.251L193.719 161.44C193.719 161.506 193.719 161.573 193.719 161.64C193.719 162.007 193.713 162.373 193.702 162.739C191.942 160.37 190.456 157.808 189.273 155.104L189.169 154.875L189.327 154.68C191.3 152.225 193.572 150.028 196.091 148.138C194.523 152.332 193.719 156.773 193.718 161.251Z" fill="black"/>
<path d="M170.325 204.842C172.124 203.093 173.722 201.148 175.09 199.045C172.64 204.265 171.431 209.983 171.56 215.749C171.689 221.515 173.151 227.172 175.832 232.279C178.512 237.385 182.339 241.801 187.012 245.181C191.686 248.561 197.078 250.813 202.767 251.761L202.952 251.791L203.094 251.672C205.474 249.687 208.101 248.02 210.91 246.711C209.332 248.158 207.941 249.797 206.771 251.589L206.373 252.188L207.09 252.222C207.71 252.252 208.325 252.268 208.919 252.268C212.41 252.271 215.885 251.789 219.244 250.836C234.502 246.495 250.886 245.753 267.942 248.629C270.866 249.121 273.827 249.368 276.792 249.368C289.719 249.378 302.195 244.62 311.832 236.005C307.557 245.036 300.808 252.668 292.369 258.015C283.93 263.363 274.147 266.207 264.156 266.216C261.19 266.217 258.23 265.97 255.305 265.478C238.25 262.601 221.865 263.344 206.608 267.684C203.249 268.637 199.774 269.119 196.283 269.116C195.689 269.116 195.073 269.101 194.454 269.071L193.736 269.036L194.135 268.438C195.305 266.645 196.695 265.006 198.274 263.559C195.465 264.868 192.838 266.536 190.458 268.521L190.315 268.64L190.13 268.61C183.299 267.473 176.918 264.461 171.699 259.909C166.48 255.357 162.628 249.444 160.574 242.83C158.52 236.217 158.344 229.162 160.066 222.454C161.788 215.747 165.339 209.649 170.325 204.842Z" fill="black"/>
</g>
<path d="M26.5944 308.729C20.5517 308.728 14.705 306.585 10.0938 302.68C5.48265 298.774 2.40584 293.36 1.41044 287.4L1.38986 287.274L1.47118 287.176C2.82633 285.552 3.96498 283.758 4.85865 281.84C3.87086 282.918 2.75177 283.867 1.5276 284.666L1.11902 284.938L1.09546 284.448C1.07488 284.025 1.06458 283.605 1.06458 283.2C1.06253 280.816 1.39149 278.443 2.04206 276.15C5.00601 265.732 5.51284 254.545 3.5486 242.9C3.21297 240.903 3.04432 238.882 3.04442 236.857C3.04744 228.3 6.0963 220.024 11.6451 213.51C17.1938 206.996 24.8802 202.67 33.3277 201.306C41.7752 199.943 50.4322 201.631 57.7486 206.068C65.065 210.506 70.5629 217.402 73.258 225.524L73.3399 225.771L73.0983 225.869C71.2832 226.637 69.3585 227.115 67.3948 227.284C69.47 227.762 71.5987 227.966 73.7269 227.892L73.9516 227.885L74.0064 228.103C74.72 230.966 75.0806 233.906 75.0801 236.857L75.0788 237.176C75.0721 239.436 75.5417 241.672 76.457 243.738C77.3723 245.804 78.7128 247.654 80.391 249.167C83.1182 251.649 85.2756 254.691 86.7146 258.086C88.1535 261.481 88.84 265.147 88.7268 268.832C88.6136 272.518 87.7034 276.135 86.0588 279.435C84.4142 282.735 82.0742 285.64 79.1998 287.949L79.0667 288.056L78.9107 287.985C75.6231 286.494 73.2281 284.869 71.4766 282.929C72.6443 285.418 74.2164 287.697 76.129 289.672L76.3762 289.927L76.0692 290.106C72.1658 292.382 67.7279 293.58 63.2094 293.578L63.0806 293.578C63.0351 293.578 62.9893 293.578 62.9439 293.578C59.6066 293.543 56.2959 294.174 53.2059 295.436C50.116 296.697 47.309 298.563 44.9497 300.923C42.564 303.381 39.7115 305.337 36.5595 306.678C33.4075 308.018 30.0195 308.716 26.5944 308.729Z" fill="#E4E4E4"/>
<path d="M17.5596 348.954C17.4488 348.954 17.3417 348.914 17.258 348.841C17.1743 348.769 17.1197 348.668 17.104 348.558C17.0845 348.421 15.167 334.592 16.8891 316.213C18.4794 299.24 23.5866 274.792 38.8858 254.714C38.9225 254.666 38.9683 254.625 39.0206 254.595C39.0729 254.564 39.1307 254.544 39.1907 254.536C39.2507 254.528 39.3117 254.532 39.3703 254.547C39.4288 254.563 39.4837 254.59 39.5319 254.626C39.5801 254.663 39.6205 254.709 39.6509 254.761C39.6814 254.813 39.7012 254.871 39.7093 254.931C39.7174 254.991 39.7135 255.052 39.698 255.111C39.6825 255.169 39.6556 255.224 39.6188 255.272C24.4518 275.177 19.3857 299.446 17.8066 316.299C16.0946 334.571 17.9969 348.292 18.0164 348.429C18.0256 348.494 18.0207 348.561 18.002 348.624C17.9833 348.687 17.9512 348.746 17.9079 348.796C17.8646 348.845 17.8111 348.885 17.751 348.913C17.6909 348.94 17.6256 348.954 17.5596 348.954Z" fill="#3F3D56"/>
<path d="M25.2076 281.263C25.1103 281.263 25.0154 281.232 24.9366 281.175C24.8578 281.118 24.7992 281.037 24.7691 280.945C24.739 280.852 24.7389 280.753 24.769 280.66C24.799 280.567 24.8576 280.487 24.9363 280.43C29.2957 277.479 34.005 275.081 38.956 273.293C46.6909 270.461 58.453 267.894 70.5618 271.748C70.6196 271.766 70.6733 271.795 70.7197 271.834C70.7662 271.873 70.8044 271.921 70.8324 271.975C70.8603 272.029 70.8773 272.087 70.8825 272.148C70.8877 272.208 70.8809 272.269 70.8625 272.327C70.8441 272.385 70.8145 272.438 70.7754 272.484C70.7363 272.531 70.6884 272.569 70.6345 272.597C70.5806 272.624 70.5217 272.641 70.4613 272.646C70.4009 272.651 70.3401 272.644 70.2824 272.626C58.4216 268.851 46.8727 271.376 39.2728 274.158C34.4015 275.916 29.7676 278.273 25.4781 281.175C25.3995 281.232 25.3048 281.263 25.2076 281.263Z" fill="#3F3D56"/>
<path d="M74.5954 262.142C75.1274 261.997 75.6213 261.738 76.042 261.381C76.4628 261.025 76.8003 260.58 77.0307 260.079C77.2611 259.578 77.3789 259.033 77.3757 258.481C77.3725 257.93 77.2485 257.386 77.0123 256.887L85.1419 230.383L79.1623 229.198L71.727 255.177C70.9161 255.63 70.2993 256.364 69.9934 257.24C69.6876 258.117 69.7139 259.075 70.0675 259.934C70.4211 260.793 71.0773 261.492 71.9118 261.899C72.7463 262.306 73.7011 262.392 74.5954 262.142Z" fill="#FFB6B6"/>
<path d="M85.6156 222.639C84.7527 222.297 83.8029 222.239 82.9048 222.475V222.48C82.6021 222.553 82.3091 222.662 82.0323 222.804C81.7288 222.953 81.4449 223.139 81.1873 223.358C80.6299 223.821 80.1994 224.418 79.9361 225.092L75.9742 231.995C75.8603 232.191 75.7905 232.41 75.7697 232.635C75.7488 232.861 75.7774 233.088 75.8535 233.301C75.9278 233.516 76.0477 233.712 76.2049 233.876C76.3622 234.04 76.553 234.168 76.7644 234.251L77.6204 234.586L81.6866 236.182L83.1847 236.775L84.1944 237.17C84.4054 237.253 84.6318 237.29 84.8583 237.278C85.0848 237.265 85.306 237.204 85.5066 237.098C85.7072 236.993 85.8826 236.845 86.0208 236.665C86.1589 236.485 86.2566 236.277 86.3071 236.056L88.096 228.324C88.5191 227.241 88.4956 226.035 88.0307 224.969C87.5658 223.904 86.6973 223.066 85.6156 222.639Z" fill="#3F3D56"/>
<path d="M97.3978 341.904H101.538L103.508 325.937H97.3978V341.904Z" fill="#FFB6B6"/>
<path d="M95.2133 349.076H98.1817L98.7116 346.273L100.069 349.076H107.942C108.319 349.076 108.687 348.955 108.991 348.731C109.295 348.508 109.519 348.193 109.632 347.833C109.744 347.472 109.738 347.085 109.615 346.729C109.492 346.372 109.258 346.064 108.948 345.849L102.66 341.507V338.674L96.0471 339.069L95.2133 349.076Z" fill="#2F2E41"/>
<path d="M57.1407 333.691L60.701 335.802L70.54 323.074L65.2852 319.958L57.1407 333.691Z" fill="#FFB6B6"/>
<path d="M51.6033 338.745L54.1565 340.259L56.0419 338.119L55.7795 341.222L62.5514 345.238C62.876 345.43 63.2537 345.514 63.6292 345.477C64.0048 345.44 64.3586 345.283 64.639 345.031C64.9193 344.778 65.1116 344.442 65.1878 344.073C65.2639 343.703 65.2199 343.319 65.0621 342.976L61.8692 336.034L63.3145 333.597L57.4251 330.563L51.6033 338.745Z" fill="#2F2E41"/>
<path d="M99.2454 239.816L101.257 252.64L82.1471 252.892L84.662 240.571L99.2454 239.816Z" fill="#FFB6B6"/>
<path d="M101.331 252.478L106.789 265.715L107.186 301.115L102.529 334.914H97.3741L95.2622 301.666L90.0678 278.916L84.9447 302.71L69.0154 325.999H61.1879L75.5787 300.335L77.2442 272.378C77.2442 272.378 76.2061 260.518 81.5187 253.52L82.8119 249.784L101.331 252.478Z" fill="#2F2E41"/>
<path d="M101.595 228.006C101.584 227.891 101.568 227.77 101.546 227.655C101.133 224.888 99.6402 222.397 97.3951 220.728C95.1501 219.059 92.3352 218.347 89.5666 218.749C86.9664 219.138 84.5978 220.463 82.9048 222.475V222.48C82.817 222.585 82.7347 222.694 82.6524 222.804C82.5042 222.991 82.367 223.188 82.2353 223.386C81.0459 225.183 80.4332 227.3 80.4794 229.455V229.46C80.4966 230.291 80.6126 231.116 80.825 231.919C81.1906 233.323 81.4782 234.746 81.6866 236.182C81.8293 237.093 81.939 237.988 82.0213 238.86C82.0707 239.299 82.1091 239.733 82.142 240.155V240.161C82.3067 242.252 82.3615 244.128 82.4109 245.582C82.4329 246.373 82.4548 247.031 82.4932 247.536C82.4942 247.569 82.4978 247.602 82.5042 247.635C82.5464 247.974 82.692 248.292 82.9213 248.546C82.9495 248.581 82.9807 248.614 83.0145 248.644C83.258 248.863 83.5522 249.018 83.8706 249.094C83.9808 249.117 84.0929 249.128 84.2053 249.127H84.2383L87.4374 247.635L89.9617 246.46L98.5276 242.466C98.8786 242.458 99.2191 242.344 99.5035 242.138C99.7879 241.932 100.003 241.645 100.119 241.313V241.308C100.13 241.264 100.146 241.22 100.157 241.171C100.618 239.354 101.436 237.406 101.727 234.273C101.765 233.823 101.798 233.356 101.815 232.857V232.852C101.863 231.233 101.789 229.614 101.595 228.006Z" fill="#3F3D56"/>
<path d="M89.6985 217.014C94.1609 217.014 97.7784 213.396 97.7784 208.934C97.7784 204.471 94.1609 200.854 89.6985 200.854C85.236 200.854 81.6185 204.471 81.6185 208.934C81.6185 213.396 85.236 217.014 89.6985 217.014Z" fill="#FFB6B6"/>
<path d="M81.072 221.493C79.3699 221.495 77.7382 222.172 76.5346 223.375C75.331 224.579 74.6539 226.211 74.6517 227.913V241.22C74.6512 242.716 75.1736 244.165 76.1286 245.316C77.0836 246.468 78.411 247.249 79.8813 247.525H79.8867C80.2776 247.598 80.6744 247.635 81.072 247.635H89.9617V221.493H81.072Z" fill="#338051"/>
<path d="M81.1873 222.804V232.511C81.1873 232.808 81.3052 233.093 81.5151 233.303C81.7251 233.513 82.0098 233.631 82.3067 233.631C82.6036 233.631 82.8883 233.513 83.0983 233.303C83.3082 233.093 83.4261 232.808 83.4261 232.511V222.804H81.1873Z" fill="#3F3D56"/>
<path d="M86.1204 238.86H79.6123C79.4266 238.86 79.2429 238.897 79.0715 238.968C78.9 239.04 78.7444 239.144 78.6134 239.275C78.4824 239.407 78.3786 239.563 78.308 239.735C78.2374 239.906 78.2014 240.09 78.202 240.276V244.167C78.2017 244.541 78.35 244.901 78.6144 245.166C78.8788 245.432 79.2376 245.581 79.6123 245.582H86.1204C86.4956 245.582 86.8552 245.432 87.1205 245.167C87.3858 244.901 87.5353 244.542 87.5362 244.167V240.276C87.5362 240.09 87.4996 239.906 87.4284 239.734C87.3573 239.562 87.253 239.406 87.1215 239.275C86.9901 239.143 86.834 239.039 86.6622 238.968C86.4905 238.897 86.3063 238.86 86.1204 238.86Z" fill="#3F3D56"/>
<path d="M98.1428 237.629C99.9177 235.377 100.855 232.577 100.793 229.71C100.793 223.945 97.359 219.254 93.1378 219.254C90.8716 219.254 88.7366 220.608 87.2802 222.97L87.9158 223.362C89.2332 221.226 91.1365 220.001 93.1378 220.001C96.9472 220.001 100.046 224.356 100.046 229.71C100.108 232.401 99.2341 235.029 97.573 237.147L98.1428 237.629Z" fill="#338051"/>
<path d="M115.75 257.152C115.995 256.658 116.128 256.116 116.14 255.565C116.152 255.013 116.043 254.466 115.821 253.961C115.599 253.457 115.268 253.007 114.853 252.643C114.439 252.28 113.949 252.012 113.419 251.859L98.9702 228.199L94.1179 231.889L108.635 254.681C108.436 255.588 108.576 256.536 109.03 257.347C109.483 258.157 110.218 258.773 111.095 259.077C111.972 259.382 112.93 259.354 113.788 258.999C114.647 258.645 115.345 257.987 115.75 257.152Z" fill="#FFB6B6"/>
<path d="M103.988 231.085L101.546 227.655L100.24 225.822L99.389 224.626C99.122 224.099 98.7504 223.632 98.297 223.254C97.5231 222.606 96.5496 222.245 95.5404 222.231C94.5312 222.217 93.5482 222.552 92.7568 223.178C91.9655 223.805 91.4142 224.685 91.1959 225.67C90.9776 226.655 91.1057 227.686 91.5585 228.588L94.0937 236.133C94.1669 236.348 94.2854 236.544 94.4412 236.709C94.597 236.874 94.7864 237.004 94.9967 237.089C95.2069 237.175 95.433 237.214 95.6597 237.204C95.8864 237.194 96.1084 237.136 96.3106 237.033L97.1282 236.616L98.4178 235.957L99.5756 235.37H99.5811L101.727 234.273L102.457 233.905L103.422 233.411C103.624 233.307 103.801 233.161 103.941 232.982C104.081 232.804 104.182 232.597 104.235 232.377C104.289 232.156 104.294 231.927 104.252 231.704C104.209 231.481 104.119 231.27 103.988 231.085Z" fill="#3F3D56"/>
<path d="M485.82 349.611H1.56902C1.50263 349.611 1.43684 349.598 1.37545 349.573C1.31405 349.548 1.25824 349.51 1.21121 349.464C1.16419 349.417 1.12688 349.361 1.10142 349.3C1.07597 349.238 1.06287 349.173 1.06287 349.106C1.06287 349.04 1.07597 348.974 1.10142 348.913C1.12688 348.852 1.16419 348.796 1.21121 348.749C1.25824 348.702 1.31405 348.665 1.37545 348.64C1.43684 348.615 1.50263 348.602 1.56902 348.602H485.82C485.954 348.602 486.082 348.655 486.177 348.75C486.272 348.844 486.325 348.973 486.325 349.106C486.325 349.24 486.272 349.368 486.177 349.463C486.082 349.558 485.954 349.611 485.82 349.611Z" fill="#CCCCCC"/>
<path d="M257.714 307.32C255.592 303.392 255.296 298.244 257.901 294.619C259.189 299.3 262.091 303.374 266.094 306.12C267.642 307.174 269.473 308.185 270.002 309.98C270.281 311.125 270.109 312.333 269.523 313.355C268.937 314.364 268.225 315.294 267.404 316.121L267.329 316.402C263.488 314.127 259.835 311.248 257.714 307.32Z" fill="#E6E6E6"/>
<path d="M127.661 207.997C125.54 204.07 125.244 198.922 127.848 195.296C129.137 199.977 132.039 204.051 136.042 206.797C137.589 207.851 139.42 208.862 139.95 210.658C140.228 211.802 140.056 213.01 139.47 214.032C138.885 215.041 138.173 215.971 137.351 216.799L137.276 217.08C133.436 214.804 129.782 211.925 127.661 207.997Z" fill="#E6E6E6"/>
<path d="M84.7705 202.341V202.347C84.7713 202.698 84.7264 203.049 84.6371 203.389C84.6229 203.448 84.6059 203.511 84.586 203.57V203.573C84.3956 204.18 84.0671 204.735 83.6264 205.194C83.1857 205.653 82.6446 206.003 82.0457 206.218C81.9577 206.252 81.8669 206.281 81.776 206.306C81.5847 206.362 81.3891 206.402 81.1913 206.426C81.0136 206.451 80.8344 206.463 80.6549 206.462C80.5146 206.463 80.3744 206.456 80.2348 206.443C79.9082 206.409 79.5869 206.336 79.2783 206.224C79.23 206.21 79.1826 206.193 79.1364 206.173C79.1132 206.165 79.0905 206.155 79.0683 206.145C78.5533 205.929 78.0876 205.611 77.6993 205.21C77.311 204.809 77.0083 204.333 76.8095 203.812C76.6107 203.29 76.5199 202.734 76.5428 202.176C76.5656 201.618 76.7015 201.071 76.9423 200.567L76.9452 200.564C77.147 200.142 77.4207 199.758 77.7541 199.429C78.524 198.661 79.5674 198.23 80.6549 198.231C80.7089 198.23 80.7629 198.232 80.8167 198.237C81.443 198.263 82.0552 198.431 82.6069 198.728C83.1587 199.026 83.6355 199.445 84.0013 199.954C84.3179 200.393 84.5437 200.891 84.6655 201.419C84.7351 201.721 84.7703 202.031 84.7705 202.341Z" fill="#2F2E41"/>
<path d="M80.0211 199.845C79.6592 198.482 78.8774 197.266 77.7862 196.372C76.6951 195.477 75.3502 194.949 73.942 194.862C72.5338 194.775 71.1339 195.133 69.9407 195.886C68.7474 196.638 67.8214 197.748 67.2939 199.056C66.4099 201.249 66.7339 203.738 66.2044 206.042C65.6704 208.135 64.4651 209.994 62.773 211.336C61.0809 212.678 58.9955 213.428 56.8364 213.471L64.8466 216.699C65.702 217.136 66.6609 217.33 67.619 217.26C69.0128 217.024 69.9826 215.693 70.3753 214.335C70.7679 212.977 70.7361 211.534 70.9846 210.143C71.3072 208.433 72.0418 206.828 73.1247 205.466C74.2077 204.104 75.6063 203.027 77.1995 202.328C78.1014 201.943 79.1037 201.652 79.7414 200.907C80.3791 200.162 80.3435 198.756 79.4193 198.428" fill="#2F2E41"/>
<path d="M93.0017 199.878C91.9151 197.503 89.0482 197.986 86.456 198.3C85.1615 198.499 83.9353 199.012 82.8835 199.792C81.8317 200.573 80.9861 201.598 80.4198 202.779C79.3119 205.172 79.1 207.884 79.8229 210.421C80.2107 212.148 81.1362 213.709 82.4664 214.877C83.8354 215.978 90.271 218.582 90.8068 216.34C90.137 219.265 91.4844 218.807 93.4788 221.049C94.5118 217.946 94.9961 212.099 96.0291 208.996L96.4956 207.595C96.8233 206.61 97.1516 205.624 97.3884 204.613C97.6859 203.344 97.8005 201.889 97.0121 200.851C96.2237 199.812 94.2377 199.772 93.8392 201.013" fill="#2F2E41"/>
<path d="M91.7008 209.759L91.3555 207.56C91.5902 204.825 91.207 200.476 93.0017 199.878L94.0992 200.975C93.405 201.206 92.0845 205.296 91.7008 209.759Z" fill="#FFD166"/>
</g>
<defs>
<clipPath id="clip0_78_2781">
<rect width="512" height="349.611" fill="white"/>
</clipPath>
</defs>
</svg>
